<svg width="20" height="20" viewBox="0 0 20 20" fill="none" xmlns="http://www.w3.org/2000/svg">
<path d="M1.66671 4.39134L2.73337 3.33301L16.6667 17.2663L15.6084 18.333L13.0417 15.7663C12.0834 16.083 11.0667 16.2497 10 16.2497C5.83337 16.2497 2.27504 13.658 0.833374 9.99967C1.40837 8.53301 2.32504 7.24134 3.49171 6.21634L1.66671 4.39134ZM10 7.49967C10.6631 7.49967 11.299 7.76307 11.7678 8.23191C12.2366 8.70075 12.5 9.33663 12.5 9.99967C12.5005 10.2835 12.4526 10.5653 12.3584 10.833L9.16671 7.64134C9.43443 7.54716 9.71624 7.49925 10 7.49967ZM10 3.74967C14.1667 3.74967 17.725 6.34134 19.1667 9.99967C18.4862 11.7271 17.3305 13.2266 15.8334 14.3247L14.65 13.133C15.8025 12.3359 16.7319 11.2573 17.35 9.99967C16.6764 8.62456 15.6305 7.46603 14.3312 6.6558C13.0319 5.84557 11.5313 5.41614 10 5.41634C9.09171 5.41634 8.20004 5.56634 7.36671 5.83301L6.08337 4.55801C7.28337 4.04134 8.60837 3.74967 10 3.74967ZM2.65004 9.99967C3.32366 11.3748 4.36959 12.5333 5.6689 13.3435C6.96822 14.1538 8.4688 14.5832 10 14.583C10.575 14.583 11.1417 14.5247 11.6667 14.408L9.76671 12.4997C9.18684 12.4375 8.64573 12.1787 8.23335 11.7664C7.82098 11.354 7.56219 10.8129 7.50004 10.233L4.66671 7.39134C3.84171 8.09967 3.15004 8.98301 2.65004 9.99967Z" fill="#BABABA"/>
</svg>
